{"title":"TNA.Lockdown.2012.04.15.HDTV.XviD-FICEK9","uid":7262890,"size":1565016344,"categoryP":"video","categoryS":"tv_shows","magnet":"?xt=urn:btih:d9c29acc65d94cc98a584335266a79541a790a0c&amp;dn=TNA.Lockdown.2012.04.15.HDTV.XviD-FICEK9&amp;tr=udp%3A%2F%2Ftracker.openbittorrent.com%3A80&amp;tr=udp%3A%2F%2Fopen.demonii.com%3A1337&amp;tr=udp%3A%2F%2Ftracker.coppersurfer.tk%3A6969&amp;tr=udp%3A%2F%2Fexodus.desync.com%3A6969","seeders":0,"leechers":1,"uploader":"FICEK9","files":2,"time":1336780117,"description":"\n      Complete name : TNA.Lockdown.2012.04.15.HDTV.XviD-FICEK9.avi\n      Format : AVI\n      Format/Info : Audio Video Interleave\n      Format profile : OpenDML\n      File size : 1.46 GiB\n      Duration : 2h 51mn\n      Overall bit rate mode : Variable\n      Overall bit rate : 1 220 Kbps\n      Writing application : MEncoder SVN-r30881(20100311-gcc4.3.3)\n      Writing library : MPlayer\n   Video #0\n      ID : 0\n      Format : MPEG-4 Visual\n      Format profile : Advanced Simple@L5\n      Format settings, BVOP : 2\n      Format settings, QPel : No\n      Format settings, GMC : No warppoints\n      Format settings, Matrix : Default (H.263)\n      Codec ID : XVID\n      Codec ID/Hint : XviD\n      Duration : 2h 51mn\n      Bit rate : 1 080 Kbps\n      Width : 624 pixels\n      Height : 352 pixels\n      Display aspect ratio : 16:9\n      Frame rate : 29.970 fps\n      Color space : YUV\n      Chroma subsampling : 4:2:0\n      Bit depth : 8 bits\n      Scan type : Progressive\n      Compression mode : Lossy\n      Bits/(Pixel*Frame) : 0.164\n      Stream size : 1.29 GiB (89%)\n      Writing library : XviD 1.2.1 (UTC 2008-12-04)\n   Audio #1\n      ID : 1\n      Format : MPEG Audio\n      Format version : Version 1\n      Format profile : Layer 3\n      Mode : Joint stereo\n      Mode extension : MS Stereo\n      Codec ID : 55\n      Codec ID/Hint : MP3\n      Duration : 2h 51mn\n      Bit rate mode : Variable\n      Bit rate : 124 Kbps\n      Channel(s) : 2 channels\n      Sampling rate : 48.0 KHz\n      Compression mode : Lossy\n      Stream size : 152 MiB (10%)\n      Alignment : Aligned on interleaves\n      Interleave, duration : 24 ms (0.72 video frame)\n      Interleave, preload duration : 522 ms\n","torrent":{"xt":"urn:btih:d9c29acc65d94cc98a584335266a79541a790a0c","amp;dn":"TNA.Lockdown.2012.04.15.HDTV.XviD-FICEK9","amp;tr":["udp%3A%2F%2Ftracker.openbittorrent.com%3A80","udp%3A%2F%2Fopen.demonii.com%3A1337","udp%3A%2F%2Ftracker.coppersurfer.tk%3A6969","udp%3A%2F%2Fexodus.desync.com%3A6969"],"infoHash":"d9c29acc65d94cc98a584335266a79541a790a0c","infoHashBuffer":{"type":"Buffer","data":[217,194,154,204,101,217,76,201,138,88,67,53,38,106,121,84,26,121,10,12]},"announce":[],"urlList":[]}}